<?xml version="1.0" encoding="UTF-8"?>
<svg version="1.1" xmlns="http://www.w3.org/2000/svg" width="1341" height="1341">
<path d="M0 0 C6.08780007 0.62794106 11.54416378 2.33188409 17.328125 4.2890625 C18.33291901 4.6240123 19.33771301 4.9589621 20.37295532 5.30406189 C23.66749346 6.40462156 26.95883598 7.51439449 30.25 8.625 C32.55869954 9.39982798 34.86745677 10.17448409 37.17626953 10.94897461 C67.32662116 21.08339125 97.31486771 31.6680935 127.27600098 42.34643555 C138.37539059 46.30230768 149.48008823 50.23634476 160.625 54.0625 C161.70700684 54.4342334 162.78901367 54.8059668 163.90380859 55.18896484 C166.22392862 55.9857636 168.54407994 56.78247125 170.86425781 57.57910156 C178.92893606 60.34940321 186.99174605 63.12491608 195.04901123 65.91671753 C197.00145367 66.59209083 198.95461055 67.2654026 200.9085083 67.93655396 C203.64919111 68.87822008 206.38732149 69.82698461 209.125 70.77734375 C209.94761322 71.05818817 210.77022644 71.33903259 211.61776733 71.62838745 C212.38585724 71.89660309 213.15394714 72.16481873 213.9453125 72.44116211 C214.61062988 72.67081161 215.27594727 72.90046112 215.96142578 73.1370697 C222.55622656 75.92865479 222.55622656 75.92865479 224.04299355 79.51796532 C224.23736189 80.53090975 224.43173023 81.54385418 224.63198853 82.5874939 C224.97737104 84.34071016 224.97737104 84.34071016 225.32973099 86.12934494 C225.55091976 87.40666111 225.77210854 88.68397728 226 90 C226.17177238 90.9753189 226.17177238 90.9753189 226.3470149 91.97034121 C227.25610334 97.17070894 228.07542808 102.3839617 228.88818359 107.60009766 C229.16270028 109.3393061 229.43762494 111.07845018 229.71292114 112.8175354 C230.45742144 117.52815206 231.19620741 122.23964879 231.93394423 126.95132875 C232.72262402 131.98186069 233.51661554 137.01155443 234.30996704 142.04135132 C235.82455667 151.64896908 237.33436754 161.25733152 238.84249079 170.8659662 C240.50698845 181.46935757 242.17694357 192.07188665 243.84734488 202.67434931 C245.16002723 211.00738775 246.47151127 219.34061491 247.78308964 227.67382717 C248.27342553 230.78898646 248.76388712 233.90412593 249.25435638 237.01926422 C252.62189022 258.41045054 255.97635801 279.80345734 259.27853751 301.20483994 C260.16877153 306.96983601 261.06260874 312.73427484 261.95638955 318.49872196 C262.78767576 323.8637247 263.61240837 329.22967887 264.43186569 334.5965004 C264.9360982 337.88868977 265.44649778 341.17990238 265.95849371 344.47089243 C266.18996634 345.96708737 266.41892959 347.46367348 266.64494562 348.96070242 C268.78977971 363.15308065 271.6268324 376.95147594 277.5 390.125 C277.96083984 391.18734863 278.42167969 392.24969727 278.89648438 393.34423828 C279.96601512 395.80558231 281.04014173 398.26440059 282.12109375 400.72070312 C284.26375774 405.59316474 286.38169645 410.4762845 288.5 415.359375 C291.47028121 422.2035123 294.44444078 429.04593672 297.42384338 435.8861084 C304.81666399 452.85935223 312.15393703 469.85640855 319.48594666 486.85598755 C322.17737481 493.09555149 324.87281477 499.33337045 327.5703125 505.5703125 C329.10960306 509.13010977 330.64865913 512.69000832 332.1875 516.25 C332.56675629 517.12737823 332.94601257 518.00475647 333.33676147 518.90872192 C338.36342177 530.54109185 343.36798864 542.18281703 348.35546875 553.83203125 C348.62631224 554.46454426 348.89715572 555.09705727 349.17620659 555.74873734 C351.60325272 561.4167885 354.03019539 567.08488317 356.45297241 572.75476074 C357.94423744 576.24447636 359.43689859 579.73359229 360.9296875 583.22265625 C361.36850754 584.25107132 361.80732758 585.27948639 362.25944519 586.33906555 C365.08304138 592.93493502 368.00408055 599.48061204 371 606 C371.48726563 604.8553125 371.97453125 603.710625 372.4765625 602.53125 C377.01109724 591.90254556 381.59474337 581.29544484 386.21746826 570.70483398 C386.81256416 569.34102419 387.40702823 567.97693848 388.00079346 566.61254883 C391.09531737 559.50437891 394.24175749 552.42891605 397.54296875 545.4140625 C400.9103099 538.25711605 404.06983967 531.01933816 407.1875 523.75 C408.32496249 521.10857044 409.46474627 518.46814819 410.60546875 515.828125 C410.89042206 515.16852783 411.17537537 514.50893066 411.46896362 513.8293457 C414.26616253 507.36548763 417.12770658 500.9308068 420 494.5 C424.22925491 485.02658069 428.38799851 475.52471325 432.5 466 C437.0890585 455.37026984 441.75192361 444.77584198 446.47167969 434.20336914 C450.81444764 424.45790585 455.06293156 414.67313973 459.28515625 404.875 C463.45242329 395.21598571 467.72660878 385.61513025 472 376 C533.71 376 595.42 376 659 376 C678.45777516 419.49385035 678.45777516 419.49385035 683.74557495 431.70062256 C684.76337104 434.05014374 685.7839121 436.39845993 686.80493164 438.74658203 C688.21107804 441.98052154 689.61654132 445.2147563 691.02148438 448.44921875 C693.98233155 455.26269121 696.95888978 462.06927852 699.9375 468.875 C700.35289032 469.82445496 700.35289032 469.82445496 700.77667236 470.79309082 C704.31528856 478.88084398 707.8621368 486.96495848 711.4140625 495.046875 C718.67081466 511.55948248 725.91951455 528.07468715 733.078125 544.63012695 C737.72087346 555.36575001 742.38900581 566.09022853 747.0625 576.8125 C747.43061798 577.65742004 747.79873596 578.50234009 748.17800903 579.37286377 C749.23418706 581.79691486 750.29083917 584.22075871 751.34765625 586.64453125 C751.65755493 587.35582687 751.96745361 588.0671225 752.28674316 588.79997253 C754.50154957 593.87691502 756.74496967 598.94080312 759 604 C761.81619189 602.59190405 762.04991318 600.94855284 763.25 598.05859375 C763.68860352 597.0116333 764.12720703 595.96467285 764.57910156 594.88598633 C765.28244629 593.1789856 765.28244629 593.1789856 766 591.4375 C766.73041504 589.688927 766.73041504 589.688927 767.47558594 587.9050293 C768.9910687 584.27302037 770.49705231 580.6372122 772 577 C773.74832657 572.77013778 775.49747913 568.54062642 777.25 564.3125 C777.66572266 563.30888428 778.08144531 562.30526855 778.50976562 561.27124023 C781.21978162 554.76687769 784.11648474 548.39785938 787.15234375 542.0390625 C790.08156115 535.76193442 792.6534163 529.32270964 795.2734375 522.91210938 C797.32480669 517.91732609 799.44884113 512.97837759 801.734375 508.0859375 C805.64950775 499.683974 809.28376719 491.16239479 812.94271851 482.64648438 C815.06177924 477.71563801 817.18724673 472.78755476 819.3125 467.859375 C819.72674728 466.89858032 820.14099457 465.93778564 820.5677948 464.94787598 C823.58428432 457.95485481 826.61797504 450.9699396 829.6875 444 C830.09411865 443.07517822 830.5007373 442.15035645 830.91967773 441.19750977 C833.22803246 435.96413921 835.56420307 430.7439128 837.91921997 425.53141785 C851.35602386 396.18289068 851.35602386 396.18289068 860.4453125 365.29296875 C860.66109451 364.29083344 860.87687653 363.28869812 861.09919739 362.25619507 C863.28443857 351.9288831 865.0318148 341.5481597 866.6875 331.125 C867.024554 329.03250906 867.36188453 326.94006266 867.69946289 324.84765625 C870.97784897 304.44211243 874.0994499 284.01172359 877.22631836 263.58251953 C879.85938588 246.38169495 882.52668739 229.18681709 885.25 212 C885.42337891 210.90579742 885.59675781 209.81159485 885.77539062 208.68423462 C885.95134766 207.57389862 886.12730469 206.46356262 886.30859375 205.31958008 C886.68099916 202.96956532 887.0533947 200.619549 887.42578125 198.26953125 C887.61806305 197.0563472 887.81034485 195.84316315 888.00845337 194.59321594 C889.88331331 182.75499402 891.74484995 170.91468622 893.60546875 159.07421875 C893.92389799 157.04810566 894.24232857 155.02199279 894.5607605 152.99588013 C895.83450662 144.89079275 897.10811284 136.7856835 898.3807373 128.68041992 C899.13150382 123.89888673 899.88279144 119.11743568 900.63442421 114.33603859 C900.91306109 112.56285596 901.19149825 110.78964194 901.46971703 109.01639366 C901.60138079 108.1772574 901.73304455 107.33812115 901.86869812 106.47355652 C901.99617841 105.66062039 902.1236587 104.84768427 902.25500202 104.01011372 C902.61759413 101.71027541 902.98624019 99.41146506 903.35519409 97.11264038 C903.76578921 94.54068058 904.13819571 91.97364016 904.48587036 89.39151001 C905.28361725 83.72619737 905.93646731 79.31972891 910 75 C913.00732422 73.37597656 913.00732422 73.37597656 916.5546875 72.140625 C917.52138618 71.79498001 917.52138618 71.79498001 918.50761414 71.44235229 C920.62366179 70.69164153 922.7485737 69.97073106 924.875 69.25 C926.37416204 68.72535173 927.87277169 68.19912261 929.37084961 67.67138672 C933.90353571 66.08328039 938.44922192 64.53539116 943 63 C943.65127869 62.78001343 944.30255737 62.56002686 944.97357178 62.33337402 C950.37201831 60.51270766 955.77726861 58.71302531 961.18847656 56.93066406 C971.87579581 53.40538144 982.50545008 49.72410045 993.125 46 C993.98277039 45.69922546 994.84054077 45.39845093 995.7243042 45.08856201 C1007.51040343 40.95250778 1019.27802975 36.76678706 1031.03515625 32.54907227 C1042.82139703 28.32989689 1054.6603489 24.26610287 1066.50097656 20.20263672 C1070.93947478 18.67709651 1075.37477225 17.14243147 1079.80932617 15.60546875 C1081.92105936 14.87381921 1084.03319596 14.14333289 1086.14575195 13.4140625 C1091.39432281 11.60151356 1096.63858072 9.77795178 1101.87405396 7.927948 C1104.53702841 6.98808176 1107.20209646 6.05424114 1109.86743164 5.12109375 C1111.77097728 4.45209315 1113.67165962 3.77496312 1115.57226562 3.09765625 C1117.30959961 2.49050781 1117.30959961 2.49050781 1119.08203125 1.87109375 C1120.61694214 1.32859985 1120.61694214 1.32859985 1122.18286133 0.77514648 C1124.93764818 0.01715634 1127.16069901 -0.15587681 1130 0 C1130.2184939 5.73514136 1129.40552013 10.8784806 1128.2277832 16.48193359 C1128.03831053 17.40953617 1127.84883785 18.33713875 1127.65362358 19.29285049 C1127.02240856 22.37125234 1126.38068159 25.44735179 1125.73828125 28.5234375 C1125.28394108 30.7218998 1124.82987064 32.92041785 1124.37605286 35.11898804 C1119.66430209 57.86893999 1114.73826017 80.57292356 1109.78982544 103.27233887 C1107.10712523 115.57843732 1104.43634773 127.88712926 1101.76459479 140.19560814 C1101.31938582 142.24645626 1100.87406715 144.29728053 1100.42872047 146.34809875 C1093.56502644 177.95691692 1086.76038819 209.5783859 1079.9687416 241.20275295 C1078.89289196 246.2121904 1077.81650864 251.22151294 1076.73983765 256.23077393 C1075.1348003 263.69853795 1073.53085356 271.16653566 1071.92780018 278.63472581 C1071.50648521 280.59736128 1071.08503833 282.55996839 1070.66358185 284.52257347 C1067.69580604 298.34699383 1064.74572615 312.17482643 1061.84008789 326.01245117 C1061.58775296 327.212535 1061.33541803 328.41261883 1061.07543659 329.64906883 C1059.8935245 335.27115937 1058.71517655 340.89394129 1057.54444885 346.51837158 C1052.13101927 372.39896246 1043.40614159 396.07679739 1033.18711853 420.39897156 C1029.8193972 428.41452376 1026.51415036 436.4549054 1023.22155762 444.5015564 C1022.24040688 446.89843529 1021.25765472 449.29465156 1020.27441406 451.69067383 C1012.34307201 471.02028187 1004.45596638 490.36797481 996.56445312 509.71386719 C992.79306801 518.95902361 989.01945058 528.20326883 985.24597168 537.4475708 C983.16388685 542.54834206 981.08195107 547.64917415 979 552.75 C978.16666738 554.79166696 977.33333405 556.83333362 976.5 558.875 C975.88125 560.3909375 975.88125 560.3909375 975.25 561.9375 C953.375 615.53125 953.375 615.53125 931.5 669.125 C931.08748993 670.13565018 930.67497986 671.14630035 930.24996948 672.18757629 C929.4167393 674.22898923 928.58350769 676.27040158 927.75027466 678.31181335 C925.66535147 683.41985736 923.5804531 688.52791149 921.49560547 693.63598633 C917.76469274 702.777009 914.03362207 711.91796699 910.30158997 721.05853271 C908.6541695 725.09345013 907.00685787 729.12841197 905.35958862 733.16339111 C904.5403793 735.17003376 903.72114533 737.17666635 902.90188599 739.18328857 C898.17170933 750.76947916 893.44587711 762.35742879 888.72711945 773.94827461 C887.96158752 775.82865218 887.19598316 777.70900024 886.43035889 779.58934021 C883.97568401 785.61805746 881.52168842 791.64704993 879.06884766 797.67651367 C878.18003858 799.85987369 877.2912052 802.04322381 876.40234375 804.2265625 C876.00014114 805.21595322 875.59793854 806.20534393 875.18354797 807.22471619 C874.80707626 808.14909988 874.43060455 809.07348358 874.04272461 810.02587891 C873.7188829 810.82184479 873.3950412 811.61781067 873.06138611 812.43789673 C871.736033 815.63719575 870.36412582 818.81703976 869 822 C796.73 822 724.46 822 650 822 C642.13008472 805.13589582 642.13008472 805.13589582 639.73828125 799.1640625 C639.46974838 798.49755676 639.20121552 797.83105103 638.92454529 797.14434814 C638.34949222 795.71590301 637.77623572 794.28673341 637.20471191 792.85687256 C635.94441785 789.70424066 634.67460432 786.55546624 633.40542603 783.40640259 C632.7142277 781.6913833 632.0234604 779.97619024 631.33309937 778.26083374 C626.84518079 767.11602922 622.2946661 755.99675052 617.75 744.875 C616.4460728 741.68253379 615.14231635 738.48999788 613.83857727 735.29745483 C613.00634296 733.25953107 612.1740584 731.22162783 611.34172058 729.18374634 C607.98988317 720.97685089 604.64398539 712.76755409 601.30200195 704.55664062 C598.28936062 697.15770033 595.26865769 689.76207904 592.24609375 682.3671875 C576.40102525 643.59577916 576.40102525 643.59577916 570.8125 629.625 C570.42118896 628.64708496 570.02987793 627.66916992 569.62670898 626.66162109 C568.34926062 623.45471519 567.09184954 620.27554863 566 617 C565.34 617 564.68 617 564 617 C563.82893738 617.60889572 563.65787476 618.21779144 563.48162842 618.84513855 C561.70480109 624.98787078 559.558311 630.84833999 557.078125 636.73828125 C556.70170364 637.64384766 556.32528229 638.54941406 555.93745422 639.48242188 C555.13146826 641.42019402 554.32333291 643.35707335 553.51321411 645.29312134 C551.34634265 650.47245348 549.19599013 655.65864905 547.04296875 660.84375 C546.6096373 661.88606277 546.17630585 662.92837555 545.72984314 664.00227356 C541.95624228 673.08520625 538.24533779 682.19245952 534.5625 691.3125 C533.35196052 694.30745268 532.14093231 697.30220751 530.9296875 700.296875 C530.62093185 701.06034241 530.31217621 701.82380981 529.99406433 702.6104126 C523.21869363 719.35330173 516.37071227 736.06684126 509.53857422 752.78662109 C507.43679886 757.93031492 505.33645604 763.0745923 503.23652649 768.21903992 C501.62449773 772.16762335 500.01154533 776.11582902 498.39834595 780.06393433 C497.64929375 781.89755853 496.90056041 783.73131302 496.15219116 785.56521606 C495.10765355 788.12460994 494.0617802 790.68345447 493.015625 793.2421875 C492.7267189 793.95091507 492.43781281 794.65964264 492.14015198 795.3898468 C488.49749501 804.29029817 484.7324952 813.13532389 481 822 C409.06 822 337.12 822 263 822 C254.9665718 804.78551099 254.9665718 804.78551099 252.52734375 798.63671875 C252.24272278 797.92997009 251.95810181 797.22322144 251.66485596 796.49505615 C251.06276391 794.99894741 250.46244191 793.50212516 249.86386108 792.00460815 C248.23561641 787.93187768 246.59309331 783.86489532 244.953125 779.796875 C244.6200383 778.96953354 244.2869516 778.14219208 243.94377136 777.28977966 C240.73355662 769.32165288 237.46694357 761.37733058 234.1875 753.4375 C233.03212142 750.63819839 231.87722619 747.83869773 230.72265625 745.0390625 C230.42760696 744.32362274 230.13255768 743.60818298 229.8285675 742.87106323 C225.90841267 733.35931645 222.01798083 723.83539191 218.125 714.3125 C212.38285454 700.26760266 206.63565918 686.22481498 200.875 672.1875 C200.5487262 671.39244049 200.22245239 670.59738098 199.8862915 669.77822876 C198.24692118 665.78357467 196.60738534 661.78898853 194.96777344 657.79443359 C191.30974456 648.88216572 187.6537933 639.96904527 183.99743652 631.05609131 C182.99569932 628.61421201 181.99394877 626.17233818 180.9921875 623.73046875 C180.66178467 622.92508667 180.33138184 622.11970459 179.9909668 621.28991699 C178.011519 616.46504319 176.03161418 611.64035723 174.05133057 606.81582642 C166.30718465 587.94883593 158.57444483 569.077232 150.8550415 550.20010376 C144.92401824 535.69668329 138.9819959 521.19781874 133.03027344 506.70288086 C129.5791461 498.2963582 126.13548716 489.88685952 122.703125 481.47265625 C121.59273491 478.75178634 120.48220368 476.03097412 119.37155151 473.31021118 C118.62518179 471.48166527 117.87902623 469.65303193 117.13308716 467.8243103 C112.71675799 457.00173726 108.25822269 446.19835058 103.73046875 435.421875 C81.99297206 383.68460149 81.99297206 383.68460149 76.28515625 360.7421875 C76.11561747 360.06287548 75.94607868 359.38356346 75.77140236 358.68366623 C71.45048296 341.30501856 67.839717 323.77941792 64.22768021 306.24263763 C62.74690848 299.06702522 61.24891426 291.89497031 59.75319481 284.7224617 C59.38216282 282.94300347 59.01134396 281.16350079 58.64074135 279.38395309 C55.37781166 263.71854032 52.0029432 248.08067486 48.52508545 232.46144485 C45.59416026 219.29563259 42.72647098 206.11834088 39.9349575 192.92227936 C35.02497029 169.72009544 30.03174927 146.5361983 25.01034546 123.35791016 C24.11262136 119.21390606 23.21588389 115.06969027 22.31997681 110.92529297 C15.8531944 80.99873411 15.8531944 80.99873411 9.23871422 51.10457611 C8.75940432 48.96387669 8.28113777 46.82294678 7.80317688 44.6819458 C6.39971901 38.39868071 4.9869182 32.11776358 3.55541992 25.84082031 C3.07174194 23.68562784 2.58840057 21.53035979 2.10546875 19.375 C1.77899353 17.97105988 1.77899353 17.97105988 1.44592285 16.53875732 C0.19406567 10.89653085 -0.19751203 5.78098283 0 0 Z " fill="#FEFEFE" transform="translate(106,253)"/>
<path d="M0 0 C1.62782158 -0.00629173 1.62782158 -0.00629173 3.28852844 -0.01271057 C5.0746479 -0.00428131 5.0746479 -0.00428131 6.89685059 0.00431824 C8.15068039 0.00241989 9.40451019 0.00052155 10.69633484 -0.00143433 C14.13642086 -0.00450756 17.57626732 0.00137466 21.016325 0.01151872 C24.61439747 0.02029766 28.21246587 0.0185418 31.81054688 0.01815796 C37.85317149 0.01909471 43.89574592 0.02778007 49.93835449 0.04142761 C56.92693232 0.05715324 63.91545516 0.06242571 70.9040494 0.06169206 C77.62363734 0.06108188 84.34320736 0.0661864 91.06278992 0.07448387 C93.92396688 0.0780165 96.78513749 0.07984709 99.64631653 0.08037758 C103.64000394 0.08156783 107.63364554 0.0912767 111.62731934 0.10197449 C112.81806564 0.1015213 114.00881195 0.10106812 115.23564148 0.1006012 C116.86346306 0.10699867 116.86346306 0.10699867 118.52416992 0.11352539 C119.94111271 0.11603916 119.94111271 0.11603916 121.3866806 0.11860371 C123.76208496 0.24723816 123.76208496 0.24723816 126.76208496 1.24723816 C126.76208496 26.98723816 126.76208496 52.72723816 126.76208496 79.24723816 C134.80583496 79.08223816 142.84958496 78.91723816 151.13708496 78.74723816 C175.92320905 78.29686731 200.70470349 78.1337627 225.49463654 78.12385559 C228.09133812 78.12226616 230.68803022 78.11872897 233.284729 78.1146698 C251.44160112 78.08959368 269.58722036 78.20804259 287.73864746 78.67692566 C288.48890575 78.6952734 289.23916405 78.71362114 290.01215744 78.73252487 C322.92366924 79.56028223 363.65869333 80.8984232 388.07458496 106.43473816 C401.78172215 123.13407786 403.91522386 142.67125567 403.90734863 163.49284363 C403.91238655 165.42658844 403.91238655 165.42658844 403.91752625 167.3993988 C403.92629165 170.90776976 403.92870114 174.41611627 403.92934203 177.92449713 C403.93005662 180.12337969 403.93219859 182.32225619 403.93483925 184.52113724 C403.94406696 192.21190531 403.94817724 199.90265614 403.9473877 207.59342957 C403.94678713 214.73138689 403.95734145 221.8692686 403.97313136 229.0072068 C403.98625721 235.16296263 403.99156951 241.31869388 403.99093229 247.47446358 C403.99067884 251.13896169 403.99344453 254.80339243 404.00411034 258.46787643 C404.01569682 262.55958384 404.01101377 266.65112419 404.00500488 270.74284363 C404.01062439 271.93698883 404.0162439 273.13113403 404.02203369 274.36146545 C403.98330664 284.79033956 403.03731558 294.78462072 398.57458496 304.30973816 C398.26633789 304.98456238 397.95809082 305.6593866 397.64050293 306.35466003 C389.6034354 323.53200212 378.03659733 334.0048937 360.40661621 341.02067566 C330.851196 350.9675159 299.54403247 350.40636189 268.73749912 350.37796283 C265.03840707 350.37566594 261.3393194 350.37920901 257.64022827 350.38194275 C250.42940773 350.38635175 243.2185977 350.38544662 236.00777677 350.38253011 C230.15064759 350.38026008 224.29352133 350.37997043 218.43639183 350.38105392 C217.18012425 350.38128377 217.18012425 350.38128377 215.89847752 350.38151827 C214.1966702 350.38183802 212.49486288 350.38216223 210.79305556 350.38249086 C194.90330193 350.38533048 179.01355411 350.38208081 163.12380143 350.37669049 C149.48752001 350.37220819 135.85124709 350.37301301 122.21496582 350.37760925 C106.34769923 350.38295502 90.48043769 350.38507231 74.61317033 350.38199699 C72.92387307 350.38167845 71.23457581 350.38136408 69.54527855 350.38105392 C68.7142293 350.38089965 67.88318006 350.38074537 67.0269475 350.38058642 C61.1666435 350.37972244 55.3063427 350.38118128 49.4460392 350.38353348 C42.32064331 350.38633098 35.19525845 350.38559361 28.06986383 350.38025273 C24.43411053 350.37761747 20.79837564 350.37660795 17.16262245 350.37990189 C13.22984915 350.38341134 9.29710631 350.37923328 5.36433411 350.3742218 C4.20552697 350.37645252 3.04671983 350.37868325 1.85279733 350.38098156 C0.80629705 350.37837382 -0.24020323 350.37576607 -1.31841564 350.3730793 C-2.22671476 350.37291695 -3.13501387 350.3727546 -4.0708372 350.37258732 C-6.23791504 350.24723816 -6.23791504 350.24723816 -8.23791504 349.24723816 C-8.3065175 305.07554482 -8.35941141 260.9038571 -8.39111103 216.73212103 C-8.39486334 211.52231623 -8.39874629 206.31251155 -8.40270996 201.10270691 C-8.40349689 200.0654882 -8.40428382 199.0282695 -8.4050946 197.95961992 C-8.41816378 181.14475273 -8.44182591 164.32991617 -8.46937343 147.51506718 C-8.49738563 130.27333023 -8.51408241 113.03160937 -8.52018052 95.78985059 C-8.52430568 85.14284703 -8.53735447 74.49593004 -8.56166444 63.84895311 C-8.57747002 56.55706682 -8.5823272 49.26522556 -8.57841917 41.97332336 C-8.57648951 37.76046179 -8.57953584 33.54775195 -8.59553146 29.33491707 C-8.61004923 25.48338439 -8.61092088 21.63210657 -8.60061172 17.78056256 C-8.59933618 16.38214621 -8.60321049 14.98371443 -8.61256459 13.58532877 C-8.62448462 11.694443 -8.61637199 9.80346182 -8.60705853 7.91256142 C-8.60819769 6.85921722 -8.60933685 5.80587302 -8.61051053 4.72060931 C-8.48755402 3.90439683 -8.36459751 3.08818435 -8.23791504 2.24723816 C-4.90725107 0.02679551 -3.87988111 -0.00223753 0 0 Z M126.76208496 169.24723816 C126.76208496 198.94723816 126.76208496 228.64723816 126.76208496 259.24723816 C149.24350228 259.36385452 149.24350228 259.36385452 171.72497559 259.44255066 C180.89832547 259.46624737 190.07152795 259.49404273 199.24475098 259.54899597 C205.9267996 259.58900629 212.60872816 259.61470457 219.29089326 259.62359214 C222.82540555 259.62878306 226.35957453 259.64088523 229.89397621 259.67015839 C233.85048223 259.70265833 237.80665984 259.70318851 241.76330566 259.70133972 C242.92065216 259.71572083 244.07799866 259.73010193 245.27041626 259.74491882 C252.53025241 259.70836709 259.35152226 258.91714914 265.76208496 255.24723816 C270.27000936 248.82193637 269.21282217 239.60584161 269.19567871 232.12223816 C269.20025109 230.76660402 269.20555977 229.41097219 269.21156311 228.05534363 C269.22044801 225.22793602 269.2181237 222.40081158 269.20812988 219.57341003 C269.19663385 215.97240379 269.21688354 212.37237733 269.24604702 208.77149963 C269.26449928 205.97626165 269.26409901 203.18125475 269.2584095 200.38597107 C269.25818421 198.42026087 269.27498964 196.45457206 269.29222107 194.48893738 C269.22705199 186.07229661 268.38087218 179.16759098 262.51208496 172.80973816 C255.23935467 168.67750504 247.50949092 168.96890962 239.37927246 169.02018738 C238.15890793 169.01989532 236.9385434 169.01960327 235.68119812 169.01930237 C232.35729856 169.02045159 229.03365177 169.03043674 225.70979691 169.04445028 C222.22780359 169.05700833 218.74580641 169.05813212 215.26379395 169.0605011 C208.68019994 169.06670103 202.09667287 169.08309157 195.51310825 169.10320008 C187.27710295 169.12780616 179.04108663 169.13870861 170.80505371 169.14958191 C156.12401207 169.16902414 141.44311636 169.2090946 126.76208496 169.24723816 Z " fill="#FDFDFD" transform="translate(473.2379150390625,192.7527618408203)"/>
</svg>
