<?xml version="1.0" encoding="UTF-8"?>
<svg version="1.1" xmlns="http://www.w3.org/2000/svg" width="1341" height="1341">
<path d="M0 0 C27.43322836 9.02956323 54.72791381 18.44015089 81.99700928 27.95257568 C84.89447689 28.9631942 87.79216149 29.97318751 90.68994141 30.98291016 C100.49162309 34.39833347 110.29212124 37.8171335 120.09159851 41.23887634 C128.10068797 44.03542465 136.11054463 46.82977051 144.12060547 49.62353516 C147.67969515 50.86490941 151.23860535 52.10679613 154.79736328 53.34912109 C163.19130272 56.27896901 171.58647319 59.20515547 179.9855957 62.12011719 C183.95234582 63.4970215 187.91845777 64.87575868 191.88452148 66.25463867 C193.77499081 66.91131784 195.66577227 67.56709919 197.55688477 68.22192383 C200.17934405 69.13005046 202.80071069 70.04126856 205.421875 70.953125 C206.18969299 71.21808777 206.95751099 71.48305054 207.74859619 71.75604248 C208.83355377 72.13445282 208.83355377 72.13445282 209.94042969 72.52050781 C210.55907898 72.73507629 211.17772827 72.94964478 211.81512451 73.17071533 C212.53613342 73.44437927 213.25714233 73.71804321 214 74 C215.15802218 74.35230682 216.31604437 74.70461365 217.50915813 75.06759644 C221 77 221 77 222.35321903 80.40577316 C222.61411421 81.84758885 222.83996604 83.29600329 223.03834534 84.7477417 C223.24076109 85.94582927 223.24076109 85.94582927 223.44726604 87.16812062 C223.89305334 89.85386947 224.2929867 92.54447596 224.69360352 95.23730469 C225.0041654 97.16596835 225.31752544 99.09418322 225.63346863 101.02197266 C226.48893018 106.29182789 227.30483157 111.5671579 228.11430478 116.84424496 C228.9816196 122.45266821 229.88539528 128.05521374 230.78514099 133.6585083 C232.50070803 144.3775085 234.18390024 155.10133412 235.85555547 165.82726026 C237.70375932 177.67714453 239.58497618 189.52168839 241.47056699 201.36567211 C244.59328533 220.98533703 247.69826873 240.60778085 250.78955078 260.23242188 C250.96602056 261.35235377 251.14249033 262.47228567 251.32430768 263.6261549 C253.40961511 276.86209551 255.48546316 290.09946767 257.54955369 303.33873343 C258.83020767 311.5482171 260.12093664 319.75607844 261.41920012 327.9627955 C262.30979439 333.59610474 263.18831524 339.2311028 264.05693579 344.86783981 C264.58977195 348.30538807 265.13466548 351.74094403 265.68299794 355.17605114 C265.93010417 356.73921818 266.17239761 358.30315601 266.40914989 359.86792469 C267.85769408 369.42088746 270.13260417 378.08823805 274 387 C274.62722222 388.49061054 274.62722222 388.49061054 275.26711559 390.01133442 C276.4394903 392.78987903 277.642207 395.55376752 278.8515625 398.31640625 C279.52906052 399.87355347 279.52906052 399.87355347 280.22024536 401.4621582 C281.18546762 403.67981268 282.15191573 405.89693396 283.11950684 408.11355591 C285.18119652 412.83669422 287.23680428 417.56247194 289.29284668 422.28807068 C290.34372328 424.70321481 291.39491223 427.11822305 292.44641113 429.53309631 C297.23577665 440.53364096 301.99768776 451.54590749 306.75 462.5625 C307.52707918 464.36329007 308.3041788 466.16407131 309.08129883 467.96484375 C310.6219388 471.53507258 312.16234585 475.1054018 313.70263672 478.67578125 C316.01009754 484.02399728 318.31928003 489.3714688 320.62890625 494.71875 C325.42035864 505.81203047 330.21064595 516.90581344 335 528 C335.67826843 529.57113556 335.67826843 529.57113556 336.37023926 531.17401123 C339.24832058 537.84097328 342.12590024 544.50815159 345.00292969 551.17556763 C345.95367483 553.37879734 346.90451998 555.5819839 347.85546875 557.78512573 C352.259403 567.98854087 356.66277229 578.19206431 361.0234375 588.4140625 C361.46083 589.4386557 361.46083 589.4386557 361.90705872 590.48394775 C363.19656456 593.50544863 364.48334002 596.52805728 365.76538086 599.55273438 C366.18956299 600.54853516 366.61374512 601.54433594 367.05078125 602.5703125 C367.40825439 603.41352051 367.76572754 604.25672852 368.1340332 605.12548828 C368.85550155 606.9706256 368.85550155 606.9706256 370 608 C379.50954608 586.82295904 388.95474798 565.62100828 398.23193359 544.34114075 C402.05523641 535.57455731 405.90378635 526.81904881 409.75 518.0625 C410.51555771 516.31926075 411.28110128 514.57601528 412.04663086 512.83276367 C413.59285004 509.31181111 415.13916778 505.79090186 416.68554688 502.27001953 C418.96268645 497.0851571 421.2392539 491.90004362 423.515625 486.71484375 C423.88593338 485.87134872 424.25624176 485.0278537 424.63777161 484.15879822 C426.50753507 479.89976391 428.37721571 475.64069327 430.24682617 471.3815918 C433.62950819 463.67582627 437.01266843 455.97027287 440.39859009 448.26593018 C441.92251194 444.79826426 443.44600762 441.33041117 444.96948242 437.86254883 C445.66458813 436.28058946 446.35987966 434.69871172 447.05541992 433.11694336 C455.41802556 414.09872548 463.69831466 395.04504284 472 376 C533.05 376 594.1 376 657 376 C667.26145391 399.37331167 677.51198505 422.74871288 687.703125 446.15234375 C692.19649192 456.46550934 696.7229551 466.7640851 701.25 477.0625 C706.9047517 489.92752004 712.53110509 502.80387041 718.10961914 515.70214844 C731.2941382 546.18378883 744.63391092 576.59763492 758 607 C760.83144529 604.16855471 761.97416843 600.6981116 763.5 597.05859375 C764.02136032 595.83230255 764.02136032 595.83230255 764.55325317 594.58123779 C765.30868252 592.8035733 766.06202261 591.02501986 766.8135376 589.24569702 C768.84153711 584.44569479 770.88601029 579.65271845 772.9296875 574.859375 C773.35071747 573.87104172 773.77174744 572.88270844 774.20553589 571.86442566 C778.43951165 561.94006858 782.77286438 552.06048053 787.125 542.1875 C792.89790311 529.08117043 798.63586469 515.96083568 804.3125 502.8125 C804.64297333 502.04705872 804.97344666 501.28161743 805.31393433 500.49298096 C806.61513962 497.47861473 807.91605956 494.46412565 809.21650696 491.44943237 C812.09812014 484.76977976 814.98878502 478.09407065 817.88241577 471.4196167 C818.68719683 469.56319932 819.4917041 467.70666351 820.29614258 465.85009766 C823.34625899 458.81133156 826.39791217 451.77324551 829.46240234 444.74072266 C830.50659302 442.32771042 831.5405036 439.91262891 832.56103516 437.48974609 C835.41087602 430.76010575 838.39128258 424.14407052 841.66294575 417.60722065 C853.01805297 394.74287949 860.47194653 372.56557095 864.17378879 347.30177164 C864.74564115 343.45162506 865.35498188 339.60737025 865.95985413 335.76229858 C867.05509224 328.77305094 868.12985809 321.78088471 869.19436646 314.78689575 C871.16400577 301.86281921 873.2024017 288.94975464 875.24389648 276.03686523 C875.62127156 273.64810271 875.99862664 271.25933703 876.37596226 268.87056828 C877.14846264 263.98104175 877.9213072 259.09156977 878.69436455 254.20213127 C880.46846759 242.98031907 882.23927267 231.7579866 884.00995457 220.53563416 C884.60850437 216.74314118 885.20752549 212.95072288 885.80662441 209.15831661 C887.84936308 196.22284618 889.88321357 183.28604629 891.90112305 170.34667969 C893.6951655 158.8437487 895.50458663 147.34335839 897.33241516 135.84574592 C898.29019674 129.81723531 899.24015481 123.78772997 900.17107964 117.7550087 C901.0363926 112.14831323 901.92191827 106.54520029 902.8235302 100.94423103 C903.15008842 98.89224952 903.46905354 96.83904345 903.77995682 94.78463173 C904.20402292 91.98988567 904.65481966 89.2007688 905.11277771 86.41140747 C905.2301022 85.59447737 905.3474267 84.77754727 905.46830648 83.93586171 C906.10238161 80.24550564 906.49793593 78.39720959 909.49213505 76.02833939 C910.31973048 75.68898739 911.14732592 75.34963539 912 75 C912.6643103 74.71460358 913.32862061 74.42920715 914.01306152 74.13516235 C914.99949646 73.7871608 914.99949646 73.7871608 916.00585938 73.43212891 C916.7720459 73.15893829 917.53823242 72.88574768 918.32763672 72.60427856 C919.57311279 72.16980911 919.57311279 72.16980911 920.84375 71.7265625 C921.73529785 71.41089325 922.6268457 71.095224 923.54541016 70.76998901 C926.52829404 69.71594967 929.51405323 68.6703283 932.5 67.625 C934.63094092 66.87458048 936.76179831 66.12392372 938.89257812 65.37304688 C957.37212868 58.87354647 975.89852555 52.50958024 994.42739868 46.1524353 C1011.37934615 40.33607497 1028.30357899 34.44892987 1045.1875 28.4375 C1062.40394166 22.31469004 1079.63902628 16.24664738 1096.90176392 10.25564575 C1099.53968109 9.33989045 1102.17630369 8.42054618 1104.81185913 7.49801636 C1108.47318222 6.216672 1112.13866926 4.94754062 1115.8046875 3.6796875 C1116.91051682 3.2910704 1118.01634613 2.90245331 1119.15568542 2.50205994 C1120.16375748 2.15575027 1121.17182953 1.80944061 1122.21044922 1.45263672 C1123.53216629 0.99327225 1123.53216629 0.99327225 1124.88058472 0.52462769 C1127 0 1127 0 1129 1 C1127.71651515 9.10836061 1126.19287732 17.1314949 1124.45092773 25.15307617 C1124.20058305 26.31682298 1123.95023836 27.48056978 1123.69230747 28.67958164 C1123.00390317 31.87698031 1122.31301448 35.07382983 1121.62103081 38.27045536 C1120.87135884 41.73660338 1120.12497299 45.20345916 1119.37817383 48.67022705 C1118.08229636 54.68377422 1116.78438349 60.69687912 1115.4850769 66.70968628 C1113.59005171 75.479356 1111.69821292 84.2497108 1109.80712998 93.02023137 C1106.71072895 107.38047095 1103.61192419 121.74019069 1100.51171875 136.09960938 C1096.22004703 155.97780638 1091.93244165 175.85687907 1087.64590907 195.73618484 C1085.99911003 203.37337188 1084.35222203 211.01053975 1082.70532227 218.64770508 C1082.52643561 219.47726231 1082.34754896 220.30681955 1082.16324151 221.16151488 C1079.90555527 231.63108402 1077.64749399 242.10057212 1075.38855457 252.56987095 C1074.72802695 255.63124499 1074.06777193 258.69267763 1073.40773296 261.75415707 C1071.96328813 268.45301386 1070.51756054 275.15157542 1069.06369036 281.84839386 C1068.27689993 285.4727526 1067.49137097 289.09738381 1066.70654297 292.72216797 C1066.47551563 293.78902271 1066.47551563 293.78902271 1066.23982108 294.87743008 C1064.1821969 304.39087786 1062.18153584 313.91460966 1060.22981548 323.4503355 C1059.17532757 328.60202206 1058.1050585 333.75039804 1057.03162366 338.89816648 C1056.31680005 342.33266806 1055.61071443 345.7683871 1054.92837334 349.20950127 C1051.36184137 367.10258607 1046.34562861 383.32190646 1039.235466 400.08408928 C1037.77292485 403.53593612 1036.36322721 407.00744564 1034.96113396 410.48417473 C1033.81485834 413.31987145 1032.64641143 416.14624797 1031.47790527 418.97283936 C1029.78883419 423.05924715 1028.10816942 427.1491187 1026.42578125 431.23828125 C1026.06986908 432.10275879 1025.71395691 432.96723633 1025.34725952 433.85791016 C1020.95875173 444.52097489 1016.60500171 455.19821822 1012.25 465.875 C1011.40178951 467.95402647 1010.55356352 470.03304662 1009.70532227 472.11206055 C1007.99155679 476.31260467 1006.27795828 480.51321686 1004.56445312 484.71386719 C1000.79306801 493.95902361 997.01945058 503.20326883 993.24597168 512.4475708 C991.16388685 517.54834206 989.08195107 522.64917415 987 527.75 C986.16666738 529.79166696 985.33333405 531.83333362 984.5 533.875 C983.88125 535.3909375 983.88125 535.3909375 983.25 536.9375 C962 589 940.75 641.0625 919.5 693.125 C919.08752518 694.13556458 918.67505035 695.14612915 918.25007629 696.18731689 C917.41649221 698.22959537 916.58290456 700.27187238 915.74931335 702.31414795 C913.66978741 707.40894212 911.59032274 712.50376128 909.51098633 717.59863281 C905.71623108 726.89651556 901.9209956 736.19420098 898.12350464 745.4909668 C896.39255993 749.72866095 894.66196824 753.96649923 892.93139648 758.2043457 C892.13241554 760.16063369 891.33327549 762.11685672 890.53393555 764.07299805 C882.65020217 783.36626939 874.8304596 802.68486631 867 822 C795.39 822 723.78 822 650 822 C643.11598595 807.08463623 643.11598595 807.08463623 640.3984375 800.265625 C639.92740349 799.09630684 639.92740349 799.09630684 639.44685364 797.90336609 C638.77237162 796.22820034 638.09931026 794.55246198 637.42758179 792.87619019 C635.56683743 788.23363544 633.69451759 783.59574308 631.82421875 778.95703125 C631.43154312 777.98226334 631.03886749 777.00749542 630.6342926 776.00318909 C626.1863246 764.96729359 621.68822379 753.95196103 617.1875 742.9375 C616.34356502 740.87142835 615.49965239 738.80534756 614.65576172 736.73925781 C612.95353555 732.57200159 611.25101703 728.40486493 609.54833984 724.23779297 C606.19313453 716.02579124 602.84112503 707.81248575 599.48925781 699.59912109 C597.83936374 695.55627494 596.18895151 691.51364095 594.53808594 687.47119141 C590.62419305 677.8863886 586.71384492 668.30017695 582.8140564 658.70962524 C580.96797514 654.1701865 579.12016453 649.63145263 577.2722168 645.09277344 C576.39016502 642.92499445 575.50896459 640.75686884 574.62866211 638.58837891 C573.40953066 635.58538679 572.18749449 632.58359188 570.96484375 629.58203125 C570.60639877 628.69687332 570.2479538 627.81171539 569.87864685 626.8997345 C568.08260568 622.49888928 566.19821373 618.2151359 564 614 C552.16077232 642.92469689 540.33986576 671.85682831 528.53222656 700.79443359 C526.01926888 706.95295813 523.50580979 713.11127794 520.9921875 719.26953125 C520.57959183 720.28037277 520.16699615 721.29121429 519.74189758 722.33268738 C518.08250168 726.39810096 516.42308388 730.4635056 514.76364136 734.52890015 C510.48081119 745.02122532 506.19824029 755.51365587 501.91720581 766.00671387 C500.10892215 770.43885805 498.30043984 774.87092117 496.49194336 779.30297852 C495.63800347 781.39587443 494.78415863 783.48880912 493.93041992 785.58178711 C492.73901825 788.50254295 491.54727452 791.42315903 490.35546875 794.34375 C489.848769 795.58632568 489.848769 795.58632568 489.33183289 796.85400391 C485.90734012 805.2441266 482.45044991 813.62033593 479 822 C407.72 822 336.44 822 263 822 C256.11576854 807.08416518 256.11576854 807.08416518 253.6953125 801.0078125 C253.41465439 800.31167847 253.13399628 799.61554443 252.84483337 798.89831543 C252.24618086 797.41268415 251.64892542 795.92648921 251.05300903 794.4397583 C249.41869594 790.36324647 247.77288889 786.29136954 246.12890625 782.21875 C245.61852058 780.95316757 245.61852058 780.95316757 245.0978241 779.66201782 C241.45502862 770.63503538 237.76212619 761.62880833 234.0625 752.625 C233.39273153 750.99430723 232.72297245 749.3636106 232.05322266 747.73291016 C230.70782218 744.45755786 229.36205583 741.18235614 228.01611328 737.90722656 C225.0073601 730.585096 222.00363945 723.26090082 218.99954224 715.93685913 C217.33058971 711.86799435 215.66139896 707.79922731 213.9921875 703.73046875 C213.66176956 702.92505142 213.33135162 702.11963409 212.99092102 701.28981018 C211.01149124 696.46497085 209.03159948 691.6403214 207.05133057 686.81582642 C199.30787096 667.95050799 191.57603495 649.08048789 183.85705566 630.20513916 C176.57390107 612.3961162 169.27383637 594.59406864 161.96777344 576.79443359 C158.97823865 569.51085664 155.99019437 562.22666817 153.00201416 554.9425354 C151.33473493 550.8783328 149.66736284 546.8141683 148 542.75 C147.33333289 541.12500018 146.66666622 539.50000018 146 537.875 C145.67 537.070625 145.34 536.26625 145 535.4375 C110 450.125 110 450.125 109.05564404 447.82285881 C108.39125695 446.20358745 107.72664287 444.58440918 107.06170368 442.96536446 C105.41430506 438.95314357 103.7706356 434.93950373 102.13774109 430.9213562 C98.87152887 422.89950545 95.54684964 414.91519437 92.04614258 406.99267578 C82.30390905 384.75415667 75.97731478 362.94025037 71.24880219 339.16828918 C70.2668059 334.28143915 69.23804308 329.4044161 68.21337891 324.52636719 C66.88046064 318.16783172 65.55171674 311.80853117 64.24072266 305.44543457 C60.80121076 288.75257823 57.2467604 272.0864558 53.63671875 255.4296875 C53.36289619 254.16598705 53.08907364 252.90228661 52.80695343 251.60029221 C51.68476539 246.42271421 50.56208169 241.24524405 49.43832397 236.06800652 C47.43785009 226.85113169 45.44398028 217.63284747 43.45458984 208.41357422 C43.31282287 207.75662229 43.17105589 207.09967036 43.02499294 206.42281079 C42.45041084 203.76011685 41.87586065 201.09741603 41.30135822 198.4347049 C33.28062014 161.26068095 25.22724597 124.0937276 17.17108154 86.92736816 C16.90599792 85.70442173 16.64091431 84.4814753 16.36779785 83.22146988 C15.84324469 80.80166375 15.31862804 78.38187139 14.79394531 75.96209335 C13.55071262 70.22811844 12.30844151 64.49393948 11.06866455 58.75921631 C9.08649888 49.59434624 7.10135483 40.43043924 5.0697031 31.27639008 C4.28866959 27.75605826 3.51282353 24.23459283 2.73737144 20.71302795 C2.21543646 18.35453379 1.68512506 15.99802971 1.15449524 13.64147949 C0.84822065 12.25132263 0.54237914 10.86107026 0.23706055 9.47070312 C-0.02814896 8.28319458 -0.29335846 7.09568604 -0.56660461 5.87219238 C-1 3 -1 3 0 0 Z " fill="#010101" transform="translate(107,253)"/>
<path d="M0 0 C1.11059784 -0.00281982 2.22119568 -0.00563965 3.365448 -0.00854492 C5.20914474 -0.00550858 5.20914474 -0.00550858 7.09008789 -0.00241089 C8.37609894 -0.00416321 9.66210999 -0.00591553 10.98709106 -0.00772095 C14.52418578 -0.01229489 18.06125146 -0.01050589 21.59834671 -0.00734186 C25.2921278 -0.00481806 28.98590632 -0.00715586 32.6796875 -0.00872803 C38.88387501 -0.01054966 45.08805063 -0.00814357 51.29223633 -0.00338745 C58.47507778 0.00205516 65.65789086 0.0002925 72.84073162 -0.00521386 C78.99698219 -0.00974516 85.1532242 -0.01039545 91.3094759 -0.00777519 C94.99106118 -0.00621251 98.6726331 -0.0060184 102.35421753 -0.00931168 C106.45629571 -0.01272448 110.55832461 -0.00800038 114.66040039 -0.00241089 C115.88953156 -0.00443512 117.11866272 -0.00645935 118.38504028 -0.00854492 C120.05093704 -0.00431519 120.05093704 -0.00431519 121.75048828 0 C123.20727745 0.00056554 123.20727745 0.00056554 124.6934967 0.0011425 C126.87524414 0.12698364 126.87524414 0.12698364 127.87524414 1.12698364 C127.97021122 3.5304665 128.00083276 5.90509346 127.98876953 8.30886841 C127.98891556 9.06003937 127.98906158 9.81121033 127.98921204 10.58514404 C127.98851277 13.07958823 127.98071979 15.57395867 127.97290039 18.06838989 C127.97103626 19.79331929 127.96961233 21.51824921 127.96861267 23.24317932 C127.96478712 27.79210868 127.95495652 32.34100631 127.94390869 36.8899231 C127.93369538 41.5281837 127.92911522 46.16644942 127.92407227 50.80471802 C127.91333428 59.91215386 127.89625741 69.01956612 127.87524414 78.12698364 C129.03144068 78.12421826 129.03144068 78.12421826 130.21099472 78.12139702 C149.1505291 78.07681905 168.09005272 78.04393632 187.02962875 78.0233593 C196.18944966 78.01313858 205.3492351 77.99925954 214.5090332 77.97610474 C222.5123282 77.95588344 230.51559748 77.94320082 238.51891732 77.93880665 C242.73877676 77.93624669 246.95856276 77.93043442 251.17839813 77.91552353 C268.65092464 77.85629169 286.05667624 78.07497766 303.50512695 79.05715942 C304.25395378 79.09903877 305.0027806 79.14091812 305.77429914 79.18406653 C332.05124532 80.68884186 360.38572591 83.57581071 381.87524414 100.12698364 C383.45305664 101.27167114 383.45305664 101.27167114 385.06274414 102.43948364 C397.66999419 114.48641147 403.36822177 132.79047163 403.97379303 149.91354179 C404.01910871 153.23686431 404.03322522 156.55896624 404.03637695 159.88259888 C404.04134186 161.14393143 404.04630676 162.40526398 404.05142212 163.70481873 C404.06446257 167.14752493 404.07097534 170.59021171 404.07543278 174.03293872 C404.07837879 176.19265226 404.08248649 178.35236068 404.08693695 180.51207161 C404.1005937 187.29466774 404.11026764 194.07725193 404.11413884 200.85986084 C404.11860669 208.64142703 404.13610279 216.42281644 404.16513944 224.20432895 C404.18689993 230.24972009 404.19685081 236.29506203 404.19817996 242.34049183 C404.19921835 245.93647501 404.20491556 249.53229166 404.22299957 253.12823296 C404.39976297 290.40868414 404.39976297 290.40868414 396.87524414 307.12698364 C396.26229492 308.49403442 396.26229492 308.49403442 395.63696289 309.88870239 C388.08920069 325.13305591 374.08471736 334.43465046 358.37133789 340.03713989 C330.6372294 348.68274466 301.58627689 348.28387114 272.81450152 348.25770831 C269.07517494 348.25541646 265.33585276 348.25895211 261.5965271 348.26168823 C254.30288276 348.26610257 247.00924878 348.26518961 239.71560405 348.26227559 C233.79167549 348.2600075 227.86774982 348.25971509 221.94382095 348.26079941 C220.67422469 348.26102926 220.67422469 348.26102926 219.37898002 348.26126375 C217.6592129 348.2615835 215.93944578 348.26190771 214.21967866 348.26223634 C198.15303689 348.26507759 182.08640086 348.26182382 166.01976003 348.25643598 C152.22793287 348.25195452 138.43611412 348.25275749 124.64428711 348.25735474 C108.60308352 348.26269931 92.56188491 348.26481838 76.52068055 348.26174247 C74.81311488 348.26142393 73.10554922 348.26110956 71.39798355 348.26079941 C70.55791129 348.26064513 69.71783902 348.26049086 68.85231002 348.26033191 C62.92493434 348.25946749 56.99756181 348.26092771 51.07018661 348.26327896 C43.86346658 348.26607518 36.65675744 348.26534187 29.45003866 348.25999822 C25.77189263 348.25736105 22.09376481 348.25635661 18.4156189 348.25964737 C14.43859838 348.26315204 10.46160805 348.25898267 6.48458862 348.25396729 C5.30983156 348.25619801 4.1350745 348.25842873 2.92471874 348.26072705 C1.86852592 348.2581193 0.8123331 348.25551155 -0.27586555 348.25282478 C-1.65417996 348.25258125 -1.65417996 348.25258125 -3.06033909 348.25233281 C-5.12475586 348.12698364 -5.12475586 348.12698364 -6.12475586 347.12698364 C-6.22320682 345.28785086 -6.25031226 343.44488487 -6.250597 341.6031189 C-6.25320475 340.39648968 -6.25581249 339.18986046 -6.25849926 337.94666672 C-6.25633674 336.59043107 -6.25408007 335.23419556 -6.2517395 333.87796021 C-6.25289035 332.45062851 -6.25447763 331.02329711 -6.25646675 329.59596634 C-6.26066502 325.6552038 -6.25856715 321.71446528 -6.25548053 317.77370262 C-6.25322866 313.53098762 -6.25670497 309.28827691 -6.25946045 305.04556274 C-6.26391944 296.72675417 -6.26294111 288.40795459 -6.26004781 280.08914566 C-6.25779428 273.3314532 -6.25748103 266.57376328 -6.25857162 259.81607056 C-6.25872486 258.85621978 -6.25887809 257.896369 -6.25903597 256.90743184 C-6.25935568 254.9578371 -6.25967989 253.00824237 -6.26000856 251.05864763 C-6.26286373 232.75450369 -6.25957575 214.45036476 -6.25420819 196.14622164 C-6.24974012 180.42235855 -6.25051604 164.69850285 -6.25512695 148.97463989 C-6.26047207 130.73836012 -6.26258903 112.50208474 -6.25951469 94.26580429 C-6.25919612 92.32316844 -6.25888175 90.38053258 -6.25857162 88.43789673 C-6.25841735 87.48195028 -6.25826307 86.52600382 -6.25810412 85.5410893 C-6.25723878 78.78737105 -6.25870222 72.03365557 -6.26105118 65.27993774 C-6.26384868 57.05536297 -6.26311198 48.83079774 -6.25777043 40.60622406 C-6.25513274 36.40568516 -6.25412949 32.20516221 -6.25741959 28.00462341 C-6.26038117 24.16558907 -6.25879207 20.32658559 -6.25344203 16.48755407 C-6.25231725 15.09255552 -6.25291036 13.6975544 -6.25531782 12.30255747 C-6.25832171 10.41865618 -6.25466845 8.53474767 -6.250597 6.65084839 C-6.25043465 5.60070431 -6.2502723 4.55056023 -6.25010502 3.4685936 C-6.01827511 -0.8621512 -3.80911306 0.00147873 0 0 Z M127.87524414 168.12698364 C127.87524414 197.82698364 127.87524414 227.52698364 127.87524414 258.12698364 C151.08769773 258.18710334 151.08769773 258.18710334 174.30016232 258.22749138 C182.6042657 258.23855732 190.90832874 258.25258788 199.21240234 258.27786255 C205.78897465 258.29786968 212.36551645 258.31071737 218.94211835 258.31516063 C222.42062642 258.31775568 225.89904727 258.32380481 229.37752724 258.33844376 C233.27172031 258.3546975 237.16582999 258.35495866 241.06005859 258.35403442 C242.76802612 258.36482025 242.76802612 258.36482025 244.51049805 258.37582397 C256.57013217 258.54718054 256.57013217 258.54718054 267.50024414 254.31448364 C270.16243034 250.07918742 270.00710069 245.50094006 270.03637695 240.61184692 C270.0459845 239.31344879 270.05559204 238.01505066 270.06549072 236.67730713 C270.07033891 235.26730527 270.07461769 233.85730135 270.07836914 232.44729614 C270.08119652 231.73246944 270.0840239 231.01764275 270.08693695 230.28115463 C270.10189171 226.49945459 270.111145 222.71779234 270.11547852 218.93606567 C270.12096243 215.04350284 270.14499909 211.15128991 270.17345047 207.25883675 C270.192134 204.2526958 270.19728544 201.24663827 270.19881439 198.24044418 C270.20182779 196.80600951 270.20981168 195.37157585 270.22299957 193.93719864 C270.46601622 183.58389078 270.46601622 183.58389078 266.87524414 174.12698364 C261.05791443 168.30965393 254.85811022 167.89803617 247.00567627 167.87814331 C245.83035339 167.88533386 244.65503052 167.89252441 243.4440918 167.89993286 C242.19475861 167.89964081 240.94542542 167.89934875 239.65823364 167.89904785 C236.24537891 167.90019975 232.83276824 167.91020753 229.41995668 167.92419577 C225.84853114 167.9367261 222.2771021 167.93787544 218.70565796 167.94024658 C211.94846004 167.9464546 205.19132709 167.9628562 198.43415773 167.98294556 C189.29907538 168.00951313 180.16397517 168.02028269 171.02886391 168.03195 C156.64427535 168.05073731 142.25982388 168.09058746 127.87524414 168.12698364 Z " fill="#020202" transform="translate(472.124755859375,193.87301635742188)"/>
</svg>
